<svg width="62" height="10" viewBox="0 0 62 10" fill="none" xmlns="http://www.w3.org/2000/svg">
<path d="M0.792 7.128C0.744 7 0.704 6.872 0.672 6.744C0.648 6.608 0.628 6.46 0.612 6.3C0.596 6.132 0.584 5.94 0.576 5.724C0.568 5.5 0.564 5.232 0.564 4.92C0.564 4.608 0.568 4.344 0.576 4.128C0.584 3.904 0.596 3.712 0.612 3.552C0.628 3.384 0.648 3.236 0.672 3.108C0.704 2.98 0.744 2.848 0.792 2.712C1.008 2.04 1.364 1.54 1.86 1.212C2.364 0.875999 2.976 0.707999 3.696 0.707999C4.392 0.707999 4.98 0.868 5.46 1.188C5.948 1.5 6.308 1.944 6.54 2.52C6.58 2.592 6.56 2.64 6.48 2.664L5.172 3.252C5.1 3.292 5.044 3.272 5.004 3.192C4.892 2.928 4.732 2.708 4.524 2.532C4.324 2.356 4.052 2.268 3.708 2.268C3.388 2.268 3.124 2.348 2.916 2.508C2.716 2.668 2.572 2.888 2.484 3.168C2.46 3.24 2.44 3.32 2.424 3.408C2.408 3.488 2.392 3.592 2.376 3.72C2.368 3.848 2.36 4.008 2.352 4.2C2.352 4.392 2.352 4.632 2.352 4.92C2.352 5.208 2.352 5.448 2.352 5.64C2.36 5.832 2.368 5.992 2.376 6.12C2.392 6.248 2.408 6.356 2.424 6.444C2.44 6.524 2.46 6.6 2.484 6.672C2.572 6.952 2.716 7.172 2.916 7.332C3.124 7.492 3.388 7.572 3.708 7.572C4.052 7.572 4.324 7.484 4.524 7.308C4.732 7.132 4.892 6.912 5.004 6.648C5.044 6.568 5.1 6.548 5.172 6.588L6.48 7.176C6.56 7.2 6.58 7.248 6.54 7.32C6.308 7.896 5.948 8.344 5.46 8.664C4.98 8.976 4.392 9.132 3.696 9.132C2.976 9.132 2.364 8.968 1.86 8.64C1.364 8.304 1.008 7.8 0.792 7.128ZM10.6703 9.132C9.95834 9.132 9.33434 8.968 8.79834 8.64C8.27034 8.312 7.90234 7.816 7.69434 7.152C7.64634 7.008 7.60634 6.868 7.57434 6.732C7.55034 6.596 7.53034 6.444 7.51434 6.276C7.49834 6.108 7.48634 5.916 7.47834 5.7C7.47034 5.484 7.46634 5.224 7.46634 4.92C7.46634 4.616 7.47034 4.356 7.47834 4.14C7.48634 3.924 7.49834 3.732 7.51434 3.564C7.53034 3.396 7.55034 3.244 7.57434 3.108C7.60634 2.972 7.64634 2.832 7.69434 2.688C7.90234 2.032 8.27034 1.54 8.79834 1.212C9.33434 0.875999 9.95834 0.707999 10.6703 0.707999C11.3823 0.707999 12.0023 0.875999 12.5303 1.212C13.0663 1.54 13.4383 2.032 13.6463 2.688C13.6943 2.832 13.7303 2.972 13.7543 3.108C13.7863 3.244 13.8103 3.396 13.8263 3.564C13.8423 3.732 13.8543 3.924 13.8623 4.14C13.8703 4.356 13.8743 4.616 13.8743 4.92C13.8743 5.224 13.8703 5.484 13.8623 5.7C13.8543 5.916 13.8423 6.108 13.8263 6.276C13.8103 6.444 13.7863 6.596 13.7543 6.732C13.7303 6.868 13.6943 7.008 13.6463 7.152C13.4383 7.816 13.0663 8.312 12.5303 8.64C12.0023 8.968 11.3823 9.132 10.6703 9.132ZM10.6703 7.572C11.0063 7.572 11.2823 7.492 11.4983 7.332C11.7143 7.172 11.8663 6.952 11.9543 6.672C11.9783 6.6 11.9983 6.52 12.0143 6.432C12.0303 6.336 12.0423 6.224 12.0503 6.096C12.0663 5.96 12.0743 5.796 12.0743 5.604C12.0823 5.412 12.0863 5.184 12.0863 4.92C12.0863 4.656 12.0823 4.428 12.0743 4.236C12.0743 4.044 12.0663 3.884 12.0503 3.756C12.0423 3.62 12.0303 3.508 12.0143 3.42C11.9983 3.324 11.9783 3.24 11.9543 3.168C11.8663 2.888 11.7143 2.668 11.4983 2.508C11.2823 2.348 11.0063 2.268 10.6703 2.268C10.3343 2.268 10.0583 2.348 9.84234 2.508C9.62634 2.668 9.47434 2.888 9.38634 3.168C9.36234 3.24 9.34234 3.324 9.32634 3.42C9.31034 3.508 9.29434 3.62 9.27834 3.756C9.27034 3.884 9.26234 4.044 9.25434 4.236C9.25434 4.428 9.25434 4.656 9.25434 4.92C9.25434 5.184 9.25434 5.412 9.25434 5.604C9.26234 5.796 9.27034 5.96 9.27834 6.096C9.29434 6.224 9.31034 6.336 9.32634 6.432C9.34234 6.52 9.36234 6.6 9.38634 6.672C9.47434 6.952 9.62634 7.172 9.84234 7.332C10.0583 7.492 10.3343 7.572 10.6703 7.572ZM15.2175 0.96C15.2175 0.88 15.2575 0.84 15.3375 0.84H16.7775C16.8655 0.84 16.9335 0.88 16.9815 0.96L19.8615 6.096H19.9215V0.96C19.9215 0.88 19.9615 0.84 20.0415 0.84H21.3975C21.4775 0.84 21.5175 0.88 21.5175 0.96V8.88C21.5175 8.96 21.4775 9 21.3975 9H19.9695C19.8815 9 19.8135 8.96 19.7655 8.88L16.8735 3.756H16.8135V8.88C16.8135 8.96 16.7735 9 16.6935 9H15.3375C15.2575 9 15.2175 8.96 15.2175 8.88V0.96ZM25.9287 7.128C25.8807 7 25.8407 6.872 25.8087 6.744C25.7847 6.608 25.7647 6.46 25.7487 6.3C25.7327 6.132 25.7207 5.94 25.7127 5.724C25.7047 5.5 25.7007 5.232 25.7007 4.92C25.7007 4.608 25.7047 4.344 25.7127 4.128C25.7207 3.904 25.7327 3.712 25.7487 3.552C25.7647 3.384 25.7847 3.236 25.8087 3.108C25.8407 2.98 25.8807 2.848 25.9287 2.712C26.1447 2.04 26.5007 1.54 26.9967 1.212C27.5007 0.875999 28.1127 0.707999 28.8327 0.707999C29.5287 0.707999 30.1167 0.868 30.5967 1.188C31.0847 1.5 31.4447 1.944 31.6767 2.52C31.7167 2.592 31.6967 2.64 31.6167 2.664L30.3087 3.252C30.2367 3.292 30.1807 3.272 30.1407 3.192C30.0287 2.928 29.8687 2.708 29.6607 2.532C29.4607 2.356 29.1887 2.268 28.8447 2.268C28.5247 2.268 28.2607 2.348 28.0527 2.508C27.8527 2.668 27.7087 2.888 27.6207 3.168C27.5967 3.24 27.5767 3.32 27.5607 3.408C27.5447 3.488 27.5287 3.592 27.5127 3.72C27.5047 3.848 27.4967 4.008 27.4887 4.2C27.4887 4.392 27.4887 4.632 27.4887 4.92C27.4887 5.208 27.4887 5.448 27.4887 5.64C27.4967 5.832 27.5047 5.992 27.5127 6.12C27.5287 6.248 27.5447 6.356 27.5607 6.444C27.5767 6.524 27.5967 6.6 27.6207 6.672C27.7087 6.952 27.8527 7.172 28.0527 7.332C28.2607 7.492 28.5247 7.572 28.8447 7.572C29.1887 7.572 29.4607 7.484 29.6607 7.308C29.8687 7.132 30.0287 6.912 30.1407 6.648C30.1807 6.568 30.2367 6.548 30.3087 6.588L31.6167 7.176C31.6967 7.2 31.7167 7.248 31.6767 7.32C31.4447 7.896 31.0847 8.344 30.5967 8.664C30.1167 8.976 29.5287 9.132 28.8327 9.132C28.1127 9.132 27.5007 8.968 26.9967 8.64C26.5007 8.304 26.1447 7.8 25.9287 7.128ZM35.0151 0.96C35.0391 0.88 35.0911 0.84 35.1711 0.84H36.6831C36.7631 0.84 36.8151 0.88 36.8391 0.96L39.5991 8.88C39.6231 8.96 39.5951 9 39.5151 9H37.9551C37.8751 9 37.8231 8.96 37.7991 8.88L37.3311 7.452H34.4751L34.0191 8.88C33.9951 8.96 33.9431 9 33.8631 9H32.2911C32.2111 9 32.1831 8.96 32.2071 8.88L35.0151 0.96ZM36.8511 5.952L35.9271 3.096H35.8911L34.9671 5.952H36.8511ZM45.0537 9C44.9657 9 44.9057 8.96 44.8737 8.88L43.4697 5.892H42.3777C42.3297 5.892 42.3057 5.916 42.3057 5.964V8.88C42.3057 8.96 42.2657 9 42.1857 9H40.6617C40.5817 9 40.5417 8.96 40.5417 8.88V0.96C40.5417 0.88 40.5817 0.84 40.6617 0.84H43.9137C44.3297 0.84 44.7057 0.904 45.0417 1.032C45.3857 1.152 45.6777 1.324 45.9177 1.548C46.1657 1.772 46.3537 2.04 46.4817 2.352C46.6177 2.664 46.6857 3.004 46.6857 3.372C46.6857 3.9 46.5577 4.36 46.3017 4.752C46.0457 5.144 45.6897 5.44 45.2337 5.64L46.8417 8.856C46.8577 8.896 46.8577 8.932 46.8417 8.964C46.8257 8.988 46.7977 9 46.7577 9H45.0537ZM43.8177 4.392C44.1537 4.392 44.4217 4.3 44.6217 4.116C44.8217 3.932 44.9217 3.684 44.9217 3.372C44.9217 3.068 44.8217 2.824 44.6217 2.64C44.4217 2.456 44.1537 2.364 43.8177 2.364H42.3777C42.3297 2.364 42.3057 2.388 42.3057 2.436V4.32C42.3057 4.368 42.3297 4.392 42.3777 4.392H43.8177ZM48.03 0.96C48.03 0.88 48.07 0.84 48.15 0.84H49.59C49.678 0.84 49.746 0.88 49.794 0.96L52.674 6.096H52.734V0.96C52.734 0.88 52.774 0.84 52.854 0.84H54.21C54.29 0.84 54.33 0.88 54.33 0.96V8.88C54.33 8.96 54.29 9 54.21 9H52.782C52.694 9 52.626 8.96 52.578 8.88L49.686 3.756H49.626V8.88C49.626 8.96 49.586 9 49.506 9H48.15C48.07 9 48.03 8.96 48.03 8.88V0.96ZM55.8933 0.96C55.8933 0.88 55.9333 0.84 56.0133 0.84H61.2453C61.3253 0.84 61.3653 0.88 61.3653 0.96V2.244C61.3653 2.324 61.3253 2.364 61.2453 2.364H57.7293C57.6813 2.364 57.6573 2.388 57.6573 2.436V4.056C57.6573 4.104 57.6813 4.128 57.7293 4.128H60.6573C60.7373 4.128 60.7773 4.168 60.7773 4.248V5.52C60.7773 5.6 60.7373 5.64 60.6573 5.64H57.7293C57.6813 5.64 57.6573 5.664 57.6573 5.712V7.404C57.6573 7.452 57.6813 7.476 57.7293 7.476H61.2453C61.3253 7.476 61.3653 7.516 61.3653 7.596V8.88C61.3653 8.96 61.3253 9 61.2453 9H56.0133C55.9333 9 55.8933 8.96 55.8933 8.88V0.96Z" fill="white"/>
</svg>
