<svg width="69" height="10" viewBox="0 0 69 10" fill="none" xmlns="http://www.w3.org/2000/svg">
<path d="M0.792 7.128C0.744 7 0.704 6.872 0.672 6.744C0.648 6.608 0.628 6.46 0.612 6.3C0.596 6.132 0.584 5.94 0.576 5.724C0.568 5.5 0.564 5.232 0.564 4.92C0.564 4.608 0.568 4.344 0.576 4.128C0.584 3.904 0.596 3.712 0.612 3.552C0.628 3.384 0.648 3.236 0.672 3.108C0.704 2.98 0.744 2.848 0.792 2.712C1.008 2.04 1.364 1.54 1.86 1.212C2.364 0.875999 2.976 0.707999 3.696 0.707999C4.392 0.707999 4.98 0.868 5.46 1.188C5.948 1.5 6.308 1.944 6.54 2.52C6.58 2.592 6.56 2.64 6.48 2.664L5.172 3.252C5.1 3.292 5.044 3.272 5.004 3.192C4.892 2.928 4.732 2.708 4.524 2.532C4.324 2.356 4.052 2.268 3.708 2.268C3.388 2.268 3.124 2.348 2.916 2.508C2.716 2.668 2.572 2.888 2.484 3.168C2.46 3.24 2.44 3.32 2.424 3.408C2.408 3.488 2.392 3.592 2.376 3.72C2.368 3.848 2.36 4.008 2.352 4.2C2.352 4.392 2.352 4.632 2.352 4.92C2.352 5.208 2.352 5.448 2.352 5.64C2.36 5.832 2.368 5.992 2.376 6.12C2.392 6.248 2.408 6.356 2.424 6.444C2.44 6.524 2.46 6.6 2.484 6.672C2.572 6.952 2.716 7.172 2.916 7.332C3.124 7.492 3.388 7.572 3.708 7.572C4.052 7.572 4.324 7.484 4.524 7.308C4.732 7.132 4.892 6.912 5.004 6.648C5.044 6.568 5.1 6.548 5.172 6.588L6.48 7.176C6.56 7.2 6.58 7.248 6.54 7.32C6.308 7.896 5.948 8.344 5.46 8.664C4.98 8.976 4.392 9.132 3.696 9.132C2.976 9.132 2.364 8.968 1.86 8.64C1.364 8.304 1.008 7.8 0.792 7.128ZM10.6703 9.132C9.95834 9.132 9.33434 8.968 8.79834 8.64C8.27034 8.312 7.90234 7.816 7.69434 7.152C7.64634 7.008 7.60634 6.868 7.57434 6.732C7.55034 6.596 7.53034 6.444 7.51434 6.276C7.49834 6.108 7.48634 5.916 7.47834 5.7C7.47034 5.484 7.46634 5.224 7.46634 4.92C7.46634 4.616 7.47034 4.356 7.47834 4.14C7.48634 3.924 7.49834 3.732 7.51434 3.564C7.53034 3.396 7.55034 3.244 7.57434 3.108C7.60634 2.972 7.64634 2.832 7.69434 2.688C7.90234 2.032 8.27034 1.54 8.79834 1.212C9.33434 0.875999 9.95834 0.707999 10.6703 0.707999C11.3823 0.707999 12.0023 0.875999 12.5303 1.212C13.0663 1.54 13.4383 2.032 13.6463 2.688C13.6943 2.832 13.7303 2.972 13.7543 3.108C13.7863 3.244 13.8103 3.396 13.8263 3.564C13.8423 3.732 13.8543 3.924 13.8623 4.14C13.8703 4.356 13.8743 4.616 13.8743 4.92C13.8743 5.224 13.8703 5.484 13.8623 5.7C13.8543 5.916 13.8423 6.108 13.8263 6.276C13.8103 6.444 13.7863 6.596 13.7543 6.732C13.7303 6.868 13.6943 7.008 13.6463 7.152C13.4383 7.816 13.0663 8.312 12.5303 8.64C12.0023 8.968 11.3823 9.132 10.6703 9.132ZM10.6703 7.572C11.0063 7.572 11.2823 7.492 11.4983 7.332C11.7143 7.172 11.8663 6.952 11.9543 6.672C11.9783 6.6 11.9983 6.52 12.0143 6.432C12.0303 6.336 12.0423 6.224 12.0503 6.096C12.0663 5.96 12.0743 5.796 12.0743 5.604C12.0823 5.412 12.0863 5.184 12.0863 4.92C12.0863 4.656 12.0823 4.428 12.0743 4.236C12.0743 4.044 12.0663 3.884 12.0503 3.756C12.0423 3.62 12.0303 3.508 12.0143 3.42C11.9983 3.324 11.9783 3.24 11.9543 3.168C11.8663 2.888 11.7143 2.668 11.4983 2.508C11.2823 2.348 11.0063 2.268 10.6703 2.268C10.3343 2.268 10.0583 2.348 9.84234 2.508C9.62634 2.668 9.47434 2.888 9.38634 3.168C9.36234 3.24 9.34234 3.324 9.32634 3.42C9.31034 3.508 9.29434 3.62 9.27834 3.756C9.27034 3.884 9.26234 4.044 9.25434 4.236C9.25434 4.428 9.25434 4.656 9.25434 4.92C9.25434 5.184 9.25434 5.412 9.25434 5.604C9.26234 5.796 9.27034 5.96 9.27834 6.096C9.29434 6.224 9.31034 6.336 9.32634 6.432C9.34234 6.52 9.36234 6.6 9.38634 6.672C9.47434 6.952 9.62634 7.172 9.84234 7.332C10.0583 7.492 10.3343 7.572 10.6703 7.572ZM15.2175 0.96C15.2175 0.88 15.2575 0.84 15.3375 0.84H16.7775C16.8655 0.84 16.9335 0.88 16.9815 0.96L19.8615 6.096H19.9215V0.96C19.9215 0.88 19.9615 0.84 20.0415 0.84H21.3975C21.4775 0.84 21.5175 0.88 21.5175 0.96V8.88C21.5175 8.96 21.4775 9 21.3975 9H19.9695C19.8815 9 19.8135 8.96 19.7655 8.88L16.8735 3.756H16.8135V8.88C16.8135 8.96 16.7735 9 16.6935 9H15.3375C15.2575 9 15.2175 8.96 15.2175 8.88V0.96ZM23.0808 0.96C23.0808 0.88 23.1208 0.84 23.2008 0.84H28.4328C28.5128 0.84 28.5528 0.88 28.5528 0.96V2.244C28.5528 2.324 28.5128 2.364 28.4328 2.364H24.9168C24.8688 2.364 24.8448 2.388 24.8448 2.436V4.056C24.8448 4.104 24.8688 4.128 24.9168 4.128H27.8448C27.9248 4.128 27.9648 4.168 27.9648 4.248V5.52C27.9648 5.6 27.9248 5.64 27.8448 5.64H24.9168C24.8688 5.64 24.8448 5.664 24.8448 5.712V7.404C24.8448 7.452 24.8688 7.476 24.9168 7.476H28.4328C28.5128 7.476 28.5528 7.516 28.5528 7.596V8.88C28.5528 8.96 28.5128 9 28.4328 9H23.2008C23.1208 9 23.0808 8.96 23.0808 8.88V0.96ZM32.7139 7.128C32.6659 7 32.6259 6.872 32.5939 6.744C32.5699 6.608 32.5499 6.46 32.5339 6.3C32.5179 6.132 32.5059 5.94 32.4979 5.724C32.4899 5.5 32.4859 5.232 32.4859 4.92C32.4859 4.608 32.4899 4.344 32.4979 4.128C32.5059 3.904 32.5179 3.712 32.5339 3.552C32.5499 3.384 32.5699 3.236 32.5939 3.108C32.6259 2.98 32.6659 2.848 32.7139 2.712C32.9299 2.04 33.2859 1.54 33.7819 1.212C34.2859 0.875999 34.8979 0.707999 35.6179 0.707999C36.3139 0.707999 36.9019 0.868 37.3819 1.188C37.8699 1.5 38.2299 1.944 38.4619 2.52C38.5019 2.592 38.4819 2.64 38.4019 2.664L37.0939 3.252C37.0219 3.292 36.9659 3.272 36.9259 3.192C36.8139 2.928 36.6539 2.708 36.4459 2.532C36.2459 2.356 35.9739 2.268 35.6299 2.268C35.3099 2.268 35.0459 2.348 34.8379 2.508C34.6379 2.668 34.4939 2.888 34.4059 3.168C34.3819 3.24 34.3619 3.32 34.3459 3.408C34.3299 3.488 34.3139 3.592 34.2979 3.72C34.2899 3.848 34.2819 4.008 34.2739 4.2C34.2739 4.392 34.2739 4.632 34.2739 4.92C34.2739 5.208 34.2739 5.448 34.2739 5.64C34.2819 5.832 34.2899 5.992 34.2979 6.12C34.3139 6.248 34.3299 6.356 34.3459 6.444C34.3619 6.524 34.3819 6.6 34.4059 6.672C34.4939 6.952 34.6379 7.172 34.8379 7.332C35.0459 7.492 35.3099 7.572 35.6299 7.572C35.9739 7.572 36.2459 7.484 36.4459 7.308C36.6539 7.132 36.8139 6.912 36.9259 6.648C36.9659 6.568 37.0219 6.548 37.0939 6.588L38.4019 7.176C38.4819 7.2 38.5019 7.248 38.4619 7.32C38.2299 7.896 37.8699 8.344 37.3819 8.664C36.9019 8.976 36.3139 9.132 35.6179 9.132C34.8979 9.132 34.2859 8.968 33.7819 8.64C33.2859 8.304 32.9299 7.8 32.7139 7.128ZM41.8002 0.96C41.8242 0.88 41.8762 0.84 41.9562 0.84H43.4682C43.5482 0.84 43.6002 0.88 43.6242 0.96L46.3842 8.88C46.4082 8.96 46.3802 9 46.3002 9H44.7402C44.6602 9 44.6082 8.96 44.5842 8.88L44.1162 7.452H41.2602L40.8042 8.88C40.7802 8.96 40.7282 9 40.6482 9H39.0762C38.9962 9 38.9682 8.96 38.9922 8.88L41.8002 0.96ZM43.6362 5.952L42.7122 3.096H42.6762L41.7522 5.952H43.6362ZM51.8389 9C51.7509 9 51.6909 8.96 51.6589 8.88L50.2549 5.892H49.1629C49.1149 5.892 49.0909 5.916 49.0909 5.964V8.88C49.0909 8.96 49.0509 9 48.9709 9H47.4469C47.3669 9 47.3269 8.96 47.3269 8.88V0.96C47.3269 0.88 47.3669 0.84 47.4469 0.84H50.6989C51.1149 0.84 51.4909 0.904 51.8269 1.032C52.1709 1.152 52.4629 1.324 52.7029 1.548C52.9509 1.772 53.1389 2.04 53.2669 2.352C53.4029 2.664 53.4709 3.004 53.4709 3.372C53.4709 3.9 53.3429 4.36 53.0869 4.752C52.8309 5.144 52.4749 5.44 52.0189 5.64L53.6269 8.856C53.6429 8.896 53.6429 8.932 53.6269 8.964C53.6109 8.988 53.5829 9 53.5429 9H51.8389ZM50.6029 4.392C50.9389 4.392 51.2069 4.3 51.4069 4.116C51.6069 3.932 51.7069 3.684 51.7069 3.372C51.7069 3.068 51.6069 2.824 51.4069 2.64C51.2069 2.456 50.9389 2.364 50.6029 2.364H49.1629C49.1149 2.364 49.0909 2.388 49.0909 2.436V4.32C49.0909 4.368 49.1149 4.392 49.1629 4.392H50.6029ZM54.8152 0.96C54.8152 0.88 54.8552 0.84 54.9352 0.84H56.3752C56.4632 0.84 56.5312 0.88 56.5792 0.96L59.4592 6.096H59.5192V0.96C59.5192 0.88 59.5592 0.84 59.6392 0.84H60.9952C61.0752 0.84 61.1152 0.88 61.1152 0.96V8.88C61.1152 8.96 61.0752 9 60.9952 9H59.5672C59.4792 9 59.4112 8.96 59.3632 8.88L56.4712 3.756H56.4112V8.88C56.4112 8.96 56.3712 9 56.2912 9H54.9352C54.8552 9 54.8152 8.96 54.8152 8.88V0.96ZM62.6784 0.96C62.6784 0.88 62.7184 0.84 62.7984 0.84H68.0304C68.1104 0.84 68.1504 0.88 68.1504 0.96V2.244C68.1504 2.324 68.1104 2.364 68.0304 2.364H64.5144C64.4664 2.364 64.4424 2.388 64.4424 2.436V4.056C64.4424 4.104 64.4664 4.128 64.5144 4.128H67.4424C67.5224 4.128 67.5624 4.168 67.5624 4.248V5.52C67.5624 5.6 67.5224 5.64 67.4424 5.64H64.5144C64.4664 5.64 64.4424 5.664 64.4424 5.712V7.404C64.4424 7.452 64.4664 7.476 64.5144 7.476H68.0304C68.1104 7.476 68.1504 7.516 68.1504 7.596V8.88C68.1504 8.96 68.1104 9 68.0304 9H62.7984C62.7184 9 62.6784 8.96 62.6784 8.88V0.96Z" fill="white"/>
</svg>
